# xmcd
#
# Track frame offsets:
#	150
#	19045
#	35315
#	52128
#	65953
#	79529
#	97671
#	115868
#
# Disc length: 1802 seconds
# Revision: 0
# Processed by: cddbd v1.5.2PL0 Copyright (c) Steve Scherf et al.
# Submitted via: dBpowerAMP V12.0
#
DISCID=5e070808
DTITLE=Emma Jene - Cross Your Heart
DYEAR=2017
DGENRE=Country
TTITLE0=Cross Your Heart
TTITLE1=Fakin' It Just Makin' It
TTITLE2=As My Memories Fade
TTITLE3=Yahoo
TTITLE4=I Will Always Love You
TTITLE5=The Namoi Flows
TTITLE6=Hallelujah
TTITLE7=Beat Of The Drum
EXTD=
EXTT0=
EXTT1=
EXTT2=
EXTT3=
EXTT4=
EXTT5=
EXTT6=
EXTT7=
PLAYORDER=
